<svg width="19" height="13" viewBox="0 0 19 13" fill="none" xmlns="http://www.w3.org/2000/svg">
<path d="M15.3911 5.56298C15.3184 5.56298 15.2461 5.56298 15.1733 5.56298C10.6744 5.56298 6.17497 5.56298 1.67606 5.56396C1.55872 5.56396 1.43841 5.56101 1.32553 5.5861C0.953222 5.67022 0.689338 6.04308 0.72845 6.41151C0.771523 6.81339 1.07452 7.10656 1.47208 7.12771C1.55229 7.13214 1.63299 7.13066 1.71319 7.13066C6.19973 7.13066 10.6868 7.13066 15.1733 7.13066C15.2461 7.13066 15.3188 7.13066 15.4406 7.13066C15.3634 7.21281 15.3179 7.26495 15.2688 7.31365C13.9474 8.62702 12.6255 9.93941 11.3046 11.2533C10.9759 11.5804 10.9437 12.0236 11.218 12.3482C11.4952 12.6768 11.979 12.727 12.3176 12.4614C12.3706 12.4196 12.4181 12.3704 12.4661 12.3227C14.2559 10.5444 16.0456 8.76623 17.8354 6.98801C18.2652 6.56105 18.2652 6.1326 17.8354 5.70563C16.0328 3.91463 14.2296 2.12411 12.4285 0.331632C12.1918 0.0960121 11.9245 -0.0195847 11.5903 0.0738764C11.0467 0.225381 10.8358 0.883543 11.1908 1.31986C11.2373 1.37692 11.2918 1.42807 11.3442 1.48022C12.6523 2.78031 13.9608 4.0804 15.2708 5.37901C15.3184 5.42623 15.3842 5.45476 15.4411 5.49215C15.4243 5.51527 15.4075 5.53888 15.3911 5.56298Z" fill="#818181"/>
</svg>
