<svg width="19" height="13" viewBox="0 0 19 13" fill="none" xmlns="http://www.w3.org/2000/svg">
<path d="M15.2993 5.75243C15.2266 5.75243 15.1543 5.75243 15.0815 5.75243C10.5826 5.75243 6.08318 5.75243 1.58426 5.75342C1.46692 5.75342 1.34662 5.75047 1.23374 5.77555C0.861426 5.85967 0.597541 6.23253 0.636653 6.60096C0.679726 7.00284 0.982723 7.29601 1.38028 7.31717C1.46049 7.32159 1.54119 7.32012 1.62139 7.32012C6.10793 7.32012 10.595 7.32012 15.0815 7.32012C15.1543 7.32012 15.2271 7.32012 15.3488 7.32012C15.2716 7.40227 15.2261 7.45441 15.177 7.5031C13.8556 8.81648 12.5337 10.1289 11.2128 11.4427C10.8841 11.7698 10.8519 12.213 11.1262 12.5377C11.4034 12.8663 11.8872 12.9165 12.2258 12.6508C12.2788 12.609 12.3263 12.5598 12.3743 12.5121C14.1641 10.7339 15.9538 8.95568 17.7436 7.17747C18.1734 6.7505 18.1734 6.32205 17.7436 5.89509C15.941 4.10408 14.1378 2.31357 12.3367 0.521085C12.1 0.285465 11.8327 0.169868 11.4985 0.26333C10.9549 0.414834 10.744 1.073 11.099 1.50931C11.1455 1.56637 11.2 1.61753 11.2524 1.66967C12.5605 2.96976 13.869 4.26985 15.179 5.56846C15.2266 5.61569 15.2924 5.64422 15.3493 5.6816C15.3325 5.70472 15.3157 5.72833 15.2993 5.75243Z" fill="#F2B643"/>
</svg>
