<svg width="43" height="59" viewBox="0 0 43 59" fill="none" xmlns="http://www.w3.org/2000/svg">
<path d="M22.5666 58.2856C23.5904 58.129 24.63 58.0326 25.6366 57.8033C32.7229 56.1897 37.4743 51.8987 40.3189 45.495C41.5366 42.7545 42.0822 39.8617 42.0578 36.8723C42.0133 31.3662 37.3623 26.769 31.7091 26.734C24.8554 26.6921 18.0018 26.6879 11.1481 26.7354C5.08705 26.7774 0.127354 31.6641 0.0598679 37.5616C-0.0550079 47.6859 7.58986 56.4652 17.907 58.0507C18.49 58.1402 19.0758 58.2073 19.6602 58.2856C20.6281 58.2856 21.5973 58.2856 22.5666 58.2856ZM19.4434 42.1911C16.6979 41.0767 15.8608 38.6173 16.3433 36.6416C16.8501 34.5639 18.7915 33.0441 20.9827 33.0175C23.2343 32.9909 25.2173 34.4828 25.7644 36.5997C26.2569 38.5054 25.5002 41.0473 22.6743 42.1911C22.6743 42.3686 22.6743 42.5602 22.6743 42.7503C22.6743 45.2657 22.6714 47.7824 22.6757 50.2978C22.6771 50.9228 22.4459 51.4261 21.896 51.7575C21.3848 52.0637 20.8435 52.0861 20.3093 51.8036C19.7191 51.4904 19.4434 50.9899 19.4434 50.3425C19.4434 47.6356 19.4434 44.9287 19.4434 42.1911Z" fill="url(#paint0_linear_833_86)"/>
<path d="M21.0447 39.3029C21.9163 39.3099 22.6573 38.6066 22.6716 37.7593C22.6874 36.891 21.9379 36.1542 21.0462 36.1612C20.1746 36.1682 19.4465 36.8826 19.4451 37.7314C19.4451 38.5815 20.1731 39.2959 21.0447 39.3029Z" fill="url(#paint1_linear_833_86)"/>
<path d="M7.44524 11.3391C8.74752 5.56271 13.157 1.35988 19.1076 0.473245C24.5411 -0.335932 29.0503 1.47809 32.5023 5.67685C34.6146 8.24502 35.4994 11.2535 35.5015 14.5269C35.5056 18.373 35.5077 22.2171 35.4973 26.0632C33.7568 24.8179 31.8439 23.7967 29.7959 23.0405C29.7959 19.8629 29.798 16.6915 29.7918 13.52C29.7918 13.3263 29.7357 13.1327 29.7066 12.9391C29.1728 9.30694 26.3232 6.52883 22.5056 5.91736C19.062 5.36704 15.3753 7.2361 13.7573 10.3505C13.0926 11.6326 12.7894 12.9961 12.8039 14.4351C12.8122 15.2708 12.806 16.1085 12.806 16.934H7.14407C7.10461 15.0425 7.03191 13.1735 7.44524 11.3391Z" fill="url(#paint2_linear_833_86)"/>
<defs>
<linearGradient id="paint0_linear_833_86" x1="21.0586" y1="26.7012" x2="21.0586" y2="58.2856" gradientUnits="userSpaceOnUse">
<stop stop-color="#EBC556"/>
<stop offset="0.567708" stop-color="#B47922"/>
<stop offset="0.96875" stop-color="#F4DA69"/>
</linearGradient>
<linearGradient id="paint1_linear_833_86" x1="21.0585" y1="36.1611" x2="21.0585" y2="39.303" gradientUnits="userSpaceOnUse">
<stop stop-color="#EBC556"/>
<stop offset="0.567708" stop-color="#B47922"/>
<stop offset="0.96875" stop-color="#F4DA69"/>
</linearGradient>
<linearGradient id="paint2_linear_833_86" x1="21.3088" y1="0.285156" x2="21.3088" y2="26.0632" gradientUnits="userSpaceOnUse">
<stop stop-color="#EBC556"/>
<stop offset="0.567708" stop-color="#B47922"/>
<stop offset="0.96875" stop-color="#F4DA69"/>
</linearGradient>
</defs>
</svg>
